<?xml version="1.0" encoding="UTF-8" standalone="no"?>
<!DOCTYPE svg PUBLIC "-//W3C//DTD SVG 1.1//EN" "http://www.w3.org/Graphics/SVG/1.1/DTD/svg11.dtd">
<svg width="100%" height="100%" viewBox="0 0 180 180" version="1.1" xmlns="http://www.w3.org/2000/svg" xmlns:xlink="http://www.w3.org/1999/xlink" xml:space="preserve" xmlns:serif="http://www.serif.com/" style="fill-rule:evenodd;clip-rule:evenodd;stroke-linejoin:round;stroke-miterlimit:2;">
    <g transform="matrix(0.718135,0,0,0.718135,25.3678,25.296)">
        <g>
            <g>
                <g>
                    <g>
                        <path d="M84.5,5.5L30.3,36.8L30.3,57.5L90,23L149.7,57.5L149.7,36.8L95.4,5.5C92,3.5 87.9,3.5 84.5,5.5Z" style="fill:rgb(251,1,61);fill-rule:nonzero;"/>
                    </g>
                </g>
            </g>
            <g>
                <path d="M118.2,117C117.4,116 116.5,115.2 115.7,114.5C113.9,113.2 112.1,112.3 110.3,111.5C110.3,111.5 76.3,97.2 75.1,96.7C38.7,80.8 83.8,75.8 87.3,75.6C96.4,75.2 102.8,76.2 103,76.2C106.6,76.2 109.5,73.3 109.5,69.7C109.5,66.3 106.9,63.6 103.7,63.2C102.3,63 100.4,62.8 98.9,62.6C94.9,62.2 90.9,62.1 86.9,62.2C78.9,62.5 70.9,63.6 63,66.3C59.1,67.7 55.1,69.3 51.3,72.1C49.4,73.5 47.5,75.1 45.8,77.6C45,78.8 44.3,80.3 43.9,81.9C43.5,83.6 43.4,85.4 43.8,87.1C44.1,88.8 44.8,90.3 45.6,91.6C46.4,92.8 47.3,93.9 48.2,94.8C50.1,96.6 51.8,97.7 54,98.9C58.1,101.1 89.4,112.9 89.9,113.1C123.5,124.6 107.3,127.8 100.8,129.2C100.6,129.2 100.4,129.3 100.1,129.3C99.5,129.4 99.1,129.5 98.5,129.6C95.8,130.1 89.2,130.4 89.2,130.4C87.8,130.4 86.6,131.5 86.6,133C86.6,134.4 87.7,135.6 89.2,135.6C89.3,135.6 97.5,135.6 101.1,135.1C104.7,134.6 108.3,133.8 112,132.3C113.8,131.5 115.6,130.5 117.3,128.9C118.1,128.1 119,127.1 119.6,125.7C120.2,124.4 120.4,122.7 120.1,121.1C119.7,119.3 119,118.1 118.2,117Z" style="fill:rgb(251,1,61);fill-rule:nonzero;"/>
            </g>
            <g>
                <path d="M101.3,102.2C101.3,102.9 101.9,103.5 102.6,103.5C103.3,103.5 103.9,102.9 103.9,102.2C103.9,101.5 103.3,100.9 102.6,100.9C101.9,100.9 101.3,101.5 101.3,102.2Z" style="fill:rgb(251,1,61);fill-rule:nonzero;"/>
            </g>
            <g>
                <path d="M97.8,103.8C97.8,104.3 98.2,104.7 98.7,104.7C99.2,104.7 99.6,104.3 99.6,103.8C99.6,103.3 99.2,102.9 98.7,102.9C98.2,102.9 97.8,103.3 97.8,103.8Z" style="fill:rgb(251,1,61);fill-rule:nonzero;"/>
            </g>
            <g>
                <path d="M79.4,111.7C79.4,111.2 79,110.9 78.6,110.9C78.1,110.9 77.8,111.3 77.8,111.7C77.8,112.2 78.2,112.5 78.6,112.5C79,112.6 79.4,112.2 79.4,111.7Z" style="fill:rgb(251,1,61);fill-rule:nonzero;"/>
            </g>
            <g>
                <path d="M74.4,112.1C73.5,112.1 72.8,112.8 72.8,113.7C72.8,114.6 73.5,115.3 74.4,115.3C75.3,115.3 76,114.6 76,113.7C75.9,112.8 75.2,112.1 74.4,112.1Z" style="fill:rgb(251,1,61);fill-rule:nonzero;"/>
            </g>
            <g>
                <path d="M71.2,116C71.2,115.1 70.5,114.4 69.6,114.4C68.7,114.4 68,115.1 68,116C68,116.9 68.7,117.6 69.6,117.6C70.5,117.6 71.2,116.9 71.2,116Z" style="fill:rgb(251,1,61);fill-rule:nonzero;"/>
            </g>
            <g>
                <path d="M66.3,119.5C66.3,118.6 65.6,117.9 64.7,117.9C63.8,117.9 63.1,118.6 63.1,119.5C63.1,120.4 63.8,121.1 64.7,121.1C65.6,121.1 66.3,120.4 66.3,119.5Z" style="fill:rgb(251,1,61);fill-rule:nonzero;"/>
            </g>
            <g>
                <path d="M64.8,123.8C63.9,123.8 63.2,124.5 63.2,125.4C63.2,126.3 63.9,127 64.8,127C65.7,127 66.4,126.3 66.4,125.4C66.4,124.5 65.7,123.8 64.8,123.8Z" style="fill:rgb(251,1,61);fill-rule:nonzero;"/>
            </g>
            <g>
                <path d="M70.1,127.3C68.8,127.3 67.8,128.3 67.8,129.6C67.8,130.9 68.8,131.9 70.1,131.9C71.4,131.9 72.4,130.9 72.4,129.6C72.4,128.3 71.3,127.3 70.1,127.3Z" style="fill:rgb(251,1,61);fill-rule:nonzero;"/>
            </g>
            <g>
                <circle cx="76.6" cy="131.5" r="2.3" style="fill:rgb(251,1,61);"/>
            </g>
            <g>
                <path d="M107,99.2C106.1,99.2 105.3,99.9 105.3,100.9C105.3,101.8 106,102.6 107,102.6C108,102.6 108.7,101.9 108.7,100.9C108.7,100 108,99.2 107,99.2Z" style="fill:rgb(251,1,61);fill-rule:nonzero;"/>
            </g>
            <g>
                <circle cx="113.8" cy="98.5" r="3" style="fill:rgb(251,1,61);"/>
            </g>
            <g>
                <path d="M123.4,90.5C121.2,90.5 119.4,92.3 119.4,94.5C119.4,96.7 121.2,98.5 123.4,98.5C125.6,98.5 127.4,96.7 127.4,94.5C127.4,92.3 125.6,90.5 123.4,90.5Z" style="fill:rgb(251,1,61);fill-rule:nonzero;"/>
            </g>
            <g>
                <path d="M131.5,80.1C128.8,80.1 126.5,82.3 126.5,85.1C126.5,87.8 128.7,90.1 131.5,90.1C134.2,90.1 136.5,87.9 136.5,85.1C136.4,82.3 134.2,80.1 131.5,80.1Z" style="fill:rgb(251,1,61);fill-rule:nonzero;"/>
            </g>
            <g>
                <path d="M120,79.9C123.2,79.9 125.9,77.3 125.9,74C125.9,70.8 123.3,68.1 120,68.1C116.8,68.1 114.1,70.7 114.1,74C114.1,77.3 116.8,79.9 120,79.9Z" style="fill:rgb(251,1,61);fill-rule:nonzero;"/>
            </g>
            <g>
                <circle cx="82.9" cy="132.5" r="2.3" style="fill:rgb(251,1,61);"/>
            </g>
            <g>
                <path d="M169.7,135.4L169.6,72.8L152.7,63.1L152.8,132L93.2,166.5L110.1,176.2L164.3,144.8C167.6,142.9 169.7,139.3 169.7,135.4Z" style="fill:rgb(251,1,61);fill-rule:nonzero;"/>
            </g>
            <g>
                <path d="M10.3,135.4L10.4,72.8L27.3,63.1L27.1,132L86.7,166.5L69.8,176.2L15.6,144.8C12.4,142.9 10.3,139.3 10.3,135.4Z" style="fill:rgb(251,1,61);fill-rule:nonzero;"/>
            </g>
        </g>
    </g>
</svg>
